<?xml version="1.0" standalone="no"?>
<!DOCTYPE svg PUBLIC "-//W3C//DTD SVG 20010904//EN"
 "http://www.w3.org/TR/2001/REC-SVG-20010904/DTD/svg10.dtd">
<svg version="1.0" xmlns="http://www.w3.org/2000/svg"
 width="512.000000pt" height="512.000000pt" viewBox="0 0 512.000000 512.000000"
 preserveAspectRatio="xMidYMid meet">
<metadata>
Created by potrace 1.14, written by Peter Selinger 2001-2017
</metadata>
<g transform="translate(0.000000,512.000000) scale(0.100000,-0.100000)"
fill="#000000" stroke="none">
<path d="M2455 4706 c-55 -56 -165 -154 -245 -218 -212 -169 -310 -277 -398
-438 -92 -170 -129 -335 -119 -529 10 -186 47 -306 208 -672 126 -288 173
-415 203 -559 l22 -105 122 -3 122 -3 0 30 c0 48 -28 179 -61 286 -40 128 -84
241 -171 435 -157 350 -198 484 -198 651 0 195 78 377 235 548 22 24 105 96
184 160 80 64 158 127 174 140 28 23 29 23 52 5 12 -11 87 -71 166 -135 79
-64 171 -145 205 -181 165 -177 252 -416 224 -619 -21 -151 -58 -259 -208
-599 -133 -303 -200 -507 -218 -663 l-7 -58 124 3 123 3 9 40 c18 91 52 215
78 285 26 72 48 125 191 455 105 242 138 353 159 533 30 264 -93 586 -309 808
-37 38 -134 123 -217 189 -82 65 -193 163 -246 217 -53 54 -98 98 -100 97 -2
0 -49 -46 -104 -103z"/>
<path d="M684 3385 c-251 -54 -467 -257 -549 -515 -30 -94 -43 -237 -30 -335
l7 -58 51 7 c29 3 83 14 122 24 l69 17 -2 90 c-5 153 39 273 138 378 103 110
212 157 360 157 247 -1 461 -171 625 -498 53 -106 109 -268 133 -382 l17 -85
123 -3 122 -3 0 27 c0 45 -38 215 -71 314 -40 124 -132 315 -205 426 -75 115
-244 285 -339 340 -88 51 -184 89 -260 103 -78 15 -235 13 -311 -4z"/>
<path d="M4108 3385 c-87 -18 -223 -82 -309 -146 -242 -179 -450 -540 -528
-916 -32 -157 -42 -143 103 -143 l124 0 7 43 c19 120 83 315 146 439 85 170
226 338 344 408 175 104 384 108 538 10 154 -97 242 -267 240 -462 l-1 -96 72
-17 c39 -9 92 -19 117 -22 l46 -5 12 45 c39 159 -29 421 -153 584 -92 121
-216 210 -361 259 -66 22 -101 27 -205 30 -81 2 -149 -2 -192 -11z"/>
<path d="M1140 1840 l0 -120 1423 2 1422 3 0 115 0 115 -1422 3 -1423 2 0
-120z"/>
<path d="M2110 1474 c-6 -14 -10 -29 -10 -35 0 -49 -109 -281 -176 -376 -24
-34 -44 -69 -44 -78 0 -28 71 -158 126 -233 115 -153 295 -303 466 -387 l88
-44 80 40 c254 124 476 339 581 563 l29 63 -56 84 c-32 46 -74 120 -95 164
-36 78 -89 227 -89 252 0 10 -30 13 -125 13 -147 0 -140 10 -100 -137 31 -113
82 -236 135 -328 l41 -69 -36 -52 c-67 -97 -207 -224 -318 -288 l-47 -28 -78
48 c-86 54 -265 226 -297 287 -17 32 -18 40 -6 58 71 116 166 360 178 462 l6
47 -122 0 c-121 0 -122 0 -131 -26z"/>
</g>
</svg>
